<?xml version="1.0" encoding="UTF-8"?>
<svg version="1.1" xmlns="http://www.w3.org/2000/svg" width="339" height="282">
<path d="M0 0 C1.20334948 -0.00551503 1.20334948 -0.00551503 2.43100905 -0.01114148 C5.12236782 -0.02216501 7.81368796 -0.02601989 10.50506592 -0.02983093 C12.43353905 -0.03609654 14.36201097 -0.04274342 16.29048157 -0.04974365 C22.62599854 -0.07077306 28.96151574 -0.08114427 35.29705811 -0.09111023 C37.47863528 -0.09515805 39.66021233 -0.09927498 41.84178925 -0.10346031 C52.09015681 -0.12250867 62.33851718 -0.13674106 72.58689904 -0.14507228 C84.41540939 -0.15484698 96.24373273 -0.18117417 108.07217717 -0.22157317 C117.21625784 -0.25173204 126.36028488 -0.2665409 135.50441432 -0.26985329 C140.96527959 -0.27220382 146.42594499 -0.28116505 151.8867569 -0.30631447 C157.024989 -0.32959637 162.16288963 -0.33382785 167.30116081 -0.32355309 C169.18450714 -0.32305766 171.0678698 -0.32937996 172.95116615 -0.34310913 C175.52781691 -0.36083837 178.10327929 -0.35371727 180.67993164 -0.34057617 C181.42041724 -0.35154542 182.16090285 -0.36251466 182.92382741 -0.37381631 C189.75281422 -0.29006671 194.82963953 2.13446562 199.90643311 6.64717102 C200.62830811 7.47217102 201.35018311 8.29717102 202.09393311 9.14717102 C202.65080811 9.76592102 203.20768311 10.38467102 203.78143311 11.02217102 C207.05637818 16.32446304 207.38649847 22.14159503 207.35462952 28.217453 C207.35845506 29.00112594 207.36228061 29.78479887 207.36622208 30.59221947 C207.37649277 33.2028912 207.37257128 35.81334055 207.36859131 38.42402649 C207.37294108 40.30205996 207.37812511 42.18009166 207.38407898 44.05812073 C207.39745197 49.14907729 207.39804951 54.23995953 207.39551568 59.33093023 C207.39444478 63.58532117 207.39933242 67.83969714 207.4041211 72.09408486 C207.4152105 82.1334388 207.41565693 92.17275533 207.40960693 102.21211243 C207.40356739 112.55893065 207.41587901 122.90561288 207.437177 133.25240791 C207.45480701 142.14519391 207.46079213 151.03793669 207.45753926 159.93073952 C207.45572843 165.23784402 207.45834261 170.54485152 207.4722538 175.85194016 C207.48485018 180.84409116 207.48287085 185.83603056 207.46984291 190.82817841 C207.4674815 192.65626981 207.47019617 194.48437619 207.47846603 196.31245041 C207.55898364 215.500422 207.55898364 215.500422 202.40643311 223.89717102 C196.05742769 230.07458169 190.03182091 232.29647811 181.27015686 232.29434204 C180.46469474 232.29801873 179.65923263 232.30169542 178.82936257 232.30548352 C176.12107825 232.31652683 173.41283229 232.32036531 170.70452881 232.32417297 C168.76635109 232.33043716 166.82817458 232.33708392 164.88999939 232.34408569 C159.61708496 232.36150001 154.34417959 232.37204876 149.07124352 232.38029122 C145.77708481 232.38544075 142.48292892 232.39151652 139.1887722 232.39780235 C128.88273612 232.41685613 118.5767072 232.43108656 108.27065688 232.43941432 C96.37308633 232.4491867 84.47570182 232.47550554 72.57819682 232.51591522 C63.38318133 232.54607438 54.18821918 232.56088303 44.99315518 232.56419533 C39.50097637 232.56654613 34.00899627 232.57551055 28.5168705 232.60065651 C23.34828351 232.62393848 18.18002606 232.62816985 13.01140022 232.61789513 C11.11676691 232.61739968 9.22211736 232.62372266 7.32753372 232.63745117 C4.73550503 232.65517904 2.14465782 232.64805989 -0.44737244 232.63491821 C-1.19243111 232.64588746 -1.93748978 232.6568567 -2.70512599 232.66815835 C-9.47826433 232.58557758 -14.5060938 230.16533021 -19.65606689 225.83467102 C-25.56559219 218.77607136 -27.05957849 212.55674633 -27.03977966 203.46925354 C-27.04204522 202.70362366 -27.04431078 201.93799379 -27.04664499 201.14916301 C-27.05296723 198.58761121 -27.05215676 196.02611256 -27.05133057 193.46455383 C-27.0543232 191.62622509 -27.05772597 189.78789699 -27.06150818 187.9495697 C-27.07034268 182.95768179 -27.07268609 177.96581103 -27.07332397 172.97391605 C-27.07403489 169.85361363 -27.07617003 166.73331556 -27.07882118 163.61301422 C-27.08807344 152.7227043 -27.0921563 141.83240662 -27.09136963 130.9420929 C-27.09076916 120.79870456 -27.10131516 110.65536947 -27.11711329 100.5119946 C-27.13020101 91.79759765 -27.13555299 83.08321807 -27.13491422 74.36881137 C-27.13465955 69.16677145 -27.13749328 63.96477883 -27.14809227 58.76274872 C-27.15779372 53.86751769 -27.15783838 48.97237896 -27.15057564 44.07714462 C-27.14953228 42.28453054 -27.15187788 40.49191064 -27.1579361 38.69930649 C-27.2332775 14.8537534 -27.2332775 14.8537534 -18.90606689 6.14717102 C-12.7344232 0.77530837 -7.96129435 -0.00195856 0 0 Z M-12.04620361 17.3327179 C-14.35360375 20.82440978 -14.36991942 22.82354023 -14.29669189 26.97920227 C-14.28670166 28.14427307 -14.27671143 29.30934387 -14.26641846 30.50971985 C-14.23000244 31.97820374 -14.19358643 33.44668762 -14.15606689 34.95967102 C-14.07356689 39.64154602 -13.99106689 44.32342102 -13.90606689 49.14717102 C-4.33606689 49.14717102 5.23393311 49.14717102 15.09393311 49.14717102 C15.09393311 36.93717102 15.09393311 24.72717102 15.09393311 12.14717102 C12.08268311 12.08529602 9.07143311 12.02342102 5.96893311 11.95967102 C5.03162354 11.93235901 4.09431396 11.905047 3.12860107 11.87690735 C-3.19136364 11.81431345 -7.45279889 12.64184873 -12.04620361 17.3327179 Z M28.09393311 12.14717102 C28.09393311 24.35717102 28.09393311 36.56717102 28.09393311 49.14717102 C69.01393311 49.14717102 109.93393311 49.14717102 152.09393311 49.14717102 C152.09393311 36.93717102 152.09393311 24.72717102 152.09393311 12.14717102 C111.17393311 12.14717102 70.25393311 12.14717102 28.09393311 12.14717102 Z M165.09393311 12.14717102 C165.09393311 24.35717102 165.09393311 36.56717102 165.09393311 49.14717102 C174.66393311 49.14717102 184.23393311 49.14717102 194.09393311 49.14717102 C194.27955811 42.18623352 194.27955811 42.18623352 194.46893311 35.08467102 C194.52355713 33.63439514 194.57818115 32.18411926 194.63446045 30.68989563 C194.86780064 22.66054134 194.86780064 22.66054134 191.25799561 15.77607727 C187.95226864 12.56842328 184.93136163 12.02081797 180.42596436 12.04951477 C179.21903931 12.05326111 179.21903931 12.05326111 177.98773193 12.05708313 C176.97090332 12.06618713 175.95407471 12.07529114 174.90643311 12.08467102 C171.66830811 12.10529602 168.43018311 12.12592102 165.09393311 12.14717102 Z M-13.90606689 61.14717102 C-14.00919189 85.93842102 -14.11231689 110.72967102 -14.21856689 136.27217102 C-14.26408691 144.10080872 -14.30960693 151.92944641 -14.35650635 159.99531555 C-14.37322825 167.011286 -14.37322825 167.011286 -14.38328552 174.02726746 C-14.387945 177.15301752 -14.40668588 180.27834325 -14.4339447 183.40397644 C-14.46826691 187.39242977 -14.47851829 191.38026698 -14.47142828 195.36885428 C-14.47291057 196.83169304 -14.48281116 198.29455356 -14.50214255 199.75726533 C-14.9253217 208.34017236 -14.9253217 208.34017236 -11.62059021 215.93107605 C-6.83184613 219.84053286 -3.40741013 220.4399926 2.70974731 220.40786743 C3.86621087 220.41360575 3.86621087 220.41360575 5.04603732 220.41946 C7.63157047 220.42978551 10.21688137 220.42579871 12.8024292 220.42182922 C14.65533148 220.42617598 16.50823196 220.431359 18.36112976 220.43731689 C23.39627935 220.45072282 28.43135396 220.45128374 33.46651793 220.4487536 C37.66884931 220.44768486 41.87116547 220.45256481 46.0734936 220.45735902 C55.98754489 220.46845994 65.90155829 220.46888846 75.81561279 220.46284485 C86.04484501 220.45680498 96.27393969 220.46911509 106.50314844 220.49041492 C115.2837262 220.50802639 124.06426017 220.51403295 132.84485495 220.51077718 C138.08986945 220.50896329 143.33478587 220.51161097 148.57978439 220.52549171 C153.51279144 220.53805783 158.44558401 220.53613743 163.37858772 220.52308083 C165.18858601 220.52071276 166.99859934 220.52345795 168.8085804 220.53170395 C171.28068676 220.54215386 173.75207119 220.53408512 176.22415161 220.52139282 C176.93933531 220.52876711 177.65451901 220.53614139 178.39137495 220.54373914 C184.35420682 220.4793954 188.17733052 219.02020964 192.43886948 214.85553455 C194.44341976 211.57526738 194.5876773 209.64073639 194.57495117 205.81335449 C194.58046116 204.53859096 194.58597115 203.26382742 194.5916481 201.95043468 C194.57746249 200.53969152 194.56291092 199.12895199 194.54803467 197.71821594 C194.54680885 196.20574898 194.54734411 194.69327972 194.5494957 193.18081379 C194.55039785 189.13455565 194.52723414 185.08877177 194.49905396 181.04262543 C194.47625484 177.24432906 194.47520047 173.44614737 194.47235107 169.64778137 C194.45137123 158.54334857 194.39552648 147.43900379 194.34393311 136.33467102 C194.26143311 111.52279602 194.17893311 86.71092102 194.09393311 61.14717102 C125.45393311 61.14717102 56.81393311 61.14717102 -13.90606689 61.14717102 Z " fill="#1F1F20" transform="translate(72.90606689453125,28.852828979492188)"/>
<path d="M0 0 C0.832966 -0.00700928 1.66593201 -0.01401855 2.5241394 -0.02124023 C5.27554736 -0.03883507 8.02592546 -0.02719247 10.77734375 -0.01367188 C12.69018755 -0.01636637 14.60303003 -0.02024843 16.51586914 -0.02526855 C20.52405849 -0.03116561 24.53189118 -0.02259395 28.54003906 -0.00390625 C33.67849617 0.01888341 38.81611762 0.00576144 43.95454407 -0.01819611 C47.90423889 -0.03264846 51.8537355 -0.02805067 55.80343628 -0.01768494 C57.69807026 -0.01501609 59.59272222 -0.01829294 61.48733521 -0.02760315 C64.13527103 -0.03775953 66.78185259 -0.02228111 69.4296875 0 C70.60493484 -0.01214539 70.60493484 -0.01214539 71.80392456 -0.02453613 C75.32027457 0.03029592 77.33813576 0.23868106 80.20141602 2.35852051 C82.25778129 5.2921334 82.31116081 7.0142154 81.71484375 10.51757812 C79.23163841 13.24018105 77.69939246 13.51916086 73.99584961 13.89852905 C72.47389774 13.91632842 70.95169773 13.91755843 69.4296875 13.90576172 C68.5967215 13.91101868 67.76375549 13.91627563 66.9055481 13.92169189 C64.1542888 13.93488731 61.40360886 13.9261555 58.65234375 13.91601562 C56.73950082 13.91803649 54.82665865 13.92094804 52.91381836 13.92471313 C48.90568707 13.92913586 44.8977564 13.92270704 40.88964844 13.90869141 C35.75131766 13.89159958 30.61345697 13.90144103 25.47514343 13.9194088 C21.52547665 13.93024799 17.57592136 13.92679966 13.62625122 13.91902542 C11.73161768 13.91702379 9.83697403 13.91948139 7.94235229 13.92646408 C5.29462865 13.93408075 2.64766689 13.92247149 0 13.90576172 C-0.78349823 13.91183441 -1.56699646 13.9179071 -2.37423706 13.92416382 C-5.59042533 13.8865502 -7.91486763 13.71722404 -10.77172852 12.1769104 C-12.28515625 10.51757812 -12.28515625 10.51757812 -12.78515625 7.58007812 C-11.58681234 0.24022167 -6.46367244 -0.06679768 0 0 Z " fill="#2C2C2D" transform="translate(128.28515625,52.482421875)"/>
<path d="M0 0 C1.70446289 -0.02320313 1.70446289 -0.02320313 3.44335938 -0.046875 C5.08208008 -0.03914062 5.08208008 -0.03914062 6.75390625 -0.03125 C7.74849854 -0.02673828 8.74309082 -0.02222656 9.76782227 -0.01757812 C13.15339523 0.63879267 14.3448835 1.80535618 16.4375 4.5 C16.9375 7.5625 16.9375 7.5625 16.4375 10.5 C12.45652941 14.47218904 8.36676254 13.91989854 3.0390625 13.95898438 C1.25628906 13.94834961 1.25628906 13.94834961 -0.5625 13.9375 C-1.75101563 13.95748047 -2.93953125 13.97746094 -4.1640625 13.99804688 C-5.30617187 13.99740234 -6.44828125 13.99675781 -7.625 13.99609375 C-8.66785156 13.99794678 -9.71070313 13.9997998 -10.78515625 14.00170898 C-14.24663468 13.37641554 -15.42000953 12.23626461 -17.5625 9.5 C-18.125 7 -18.125 7 -17.5625 4.5 C-12.96511572 -1.08253805 -6.62650762 -0.09051576 0 0 Z " fill="#313131" transform="translate(222.5625,207.5)"/>
<path d="M0 0 C1.051875 -0.00257813 2.10375 -0.00515625 3.1875 -0.0078125 C4.280625 -0.00007812 5.37375 0.00765625 6.5 0.015625 C7.593125 0.00789062 8.68625 0.00015625 9.8125 -0.0078125 C10.864375 -0.00523437 11.91625 -0.00265625 13 0 C14.43859375 0.00338379 14.43859375 0.00338379 15.90625 0.00683594 C18.63328137 0.27892303 20.25263142 0.70395922 22.5 2.265625 C23.5 5.640625 23.5 5.640625 23.5 9.265625 C21.41057716 12.07908045 20.19697389 13.13573887 16.72265625 13.78320312 C15.67980469 13.78771484 14.63695312 13.79222656 13.5625 13.796875 C11.84933594 13.80460938 11.84933594 13.80460938 10.1015625 13.8125 C8.91304687 13.79703125 7.72453125 13.7815625 6.5 13.765625 C5.31148437 13.78109375 4.12296875 13.7965625 2.8984375 13.8125 C1.75632813 13.80734375 0.61421875 13.8021875 -0.5625 13.796875 C-1.60535156 13.79236328 -2.64820313 13.78785156 -3.72265625 13.78320312 C-7.19697389 13.13573887 -8.41057716 12.07908045 -10.5 9.265625 C-10.5 5.640625 -10.5 5.640625 -9.5 2.265625 C-6.40817592 0.11715861 -3.69730977 0.00869663 0 0 Z " fill="#313132" transform="translate(156.5,207.734375)"/>
<path d="M0 0 C1.71316406 -0.00773437 1.71316406 -0.00773437 3.4609375 -0.015625 C4.64945313 -0.00015625 5.83796875 0.0153125 7.0625 0.03125 C8.25101563 0.01578125 9.43953125 0.0003125 10.6640625 -0.015625 C11.80617187 -0.01046875 12.94828125 -0.0053125 14.125 0 C15.16785156 0.00451172 16.21070313 0.00902344 17.28515625 0.01367188 C20.75947389 0.66113613 21.97307716 1.71779455 24.0625 4.53125 C24.0625 8.15625 24.0625 8.15625 23.0625 11.53125 C19.97067592 13.67971639 17.25980977 13.78817837 13.5625 13.796875 C12.510625 13.79945313 11.45875 13.80203125 10.375 13.8046875 C9.281875 13.79695312 8.18875 13.78921875 7.0625 13.78125 C5.969375 13.78898438 4.87625 13.79671875 3.75 13.8046875 C2.698125 13.80210937 1.64625 13.79953125 0.5625 13.796875 C-0.3965625 13.79461914 -1.355625 13.79236328 -2.34375 13.79003906 C-5.07078137 13.51795197 -6.69013142 13.09291578 -8.9375 11.53125 C-9.9375 8.15625 -9.9375 8.15625 -9.9375 4.53125 C-7.00537629 0.58307863 -4.81302559 0.02082273 0 0 Z " fill="#313132" transform="translate(155.9375,123.46875)"/>
<path d="M0 0 C1.13695313 -0.02449219 2.27390625 -0.04898438 3.4453125 -0.07421875 C11.74921413 -0.10345784 11.74921413 -0.10345784 15.9140625 2.171875 C17.625 4.375 17.625 4.375 17.625 8 C16.625 11.375 16.625 11.375 13.625 13.375 C9.32746586 13.84370733 5.00782605 13.74534698 0.6875 13.75 C-0.50552734 13.77449219 -1.69855469 13.79898438 -2.92773438 13.82421875 C-4.07435547 13.82808594 -5.22097656 13.83195313 -6.40234375 13.8359375 C-7.97616821 13.84826416 -7.97616821 13.84826416 -9.58178711 13.86083984 C-13.08359938 13.25174917 -14.28206304 12.20945442 -16.375 9.375 C-16.3125 5.75 -16.3125 5.75 -15.375 2.375 C-10.62624742 -0.79083506 -5.58423392 0.00628855 0 0 Z " fill="#303031" transform="translate(103.375,207.625)"/>
<path d="M0 0 C1.19302734 -0.02449219 2.38605469 -0.04898438 3.61523438 -0.07421875 C5.33516602 -0.08001953 5.33516602 -0.08001953 7.08984375 -0.0859375 C8.13906006 -0.09415527 9.18827637 -0.10237305 10.26928711 -0.11083984 C13.77109938 0.49825083 14.96956304 1.54054558 17.0625 4.375 C17 8 17 8 16.0625 11.375 C11.31374742 14.54083506 6.27173392 13.74371145 0.6875 13.75 C-1.01792969 13.78673828 -1.01792969 13.78673828 -2.7578125 13.82421875 C-11.06171413 13.85345784 -11.06171413 13.85345784 -15.2265625 11.578125 C-16.9375 9.375 -16.9375 9.375 -16.9375 5.75 C-14.65203266 -1.96345226 -6.67185508 0.00718563 0 0 Z " fill="#303031" transform="translate(221.9375,123.625)"/>
<path d="M0 0 C1.78277344 -0.0299707 1.78277344 -0.0299707 3.6015625 -0.06054688 C4.74367188 -0.05990234 5.88578125 -0.05925781 7.0625 -0.05859375 C8.10535156 -0.06044678 9.14820313 -0.0622998 10.22265625 -0.06420898 C13.68413468 0.56108446 14.85750953 1.70123539 17 4.4375 C17.5625 6.9375 17.5625 6.9375 17 9.4375 C14.7314032 12.19222468 12.84977514 13.31593827 9.31030273 13.82226562 C6.01038413 13.97686476 2.74061328 13.98261936 -0.5625 13.9375 C-2.26696289 13.96070313 -2.26696289 13.96070313 -4.00585938 13.984375 C-5.64458008 13.97664062 -5.64458008 13.97664062 -7.31640625 13.96875 C-8.31099854 13.96423828 -9.30559082 13.95972656 -10.33032227 13.95507812 C-13.71589523 13.29870733 -14.9073835 12.13214382 -17 9.4375 C-17.5 6.375 -17.5 6.375 -17 3.4375 C-12.33631627 -1.2158962 -6.15451366 -0.03671348 0 0 Z " fill="#303031" transform="translate(104,123.5625)"/>
<path d="M0 0 C1.24007812 -0.00386719 2.48015625 -0.00773438 3.7578125 -0.01171875 C5.70300781 0.00568359 5.70300781 0.00568359 7.6875 0.0234375 C8.98429687 0.01183594 10.28109375 0.00023437 11.6171875 -0.01171875 C12.85726562 -0.00785156 14.09734375 -0.00398437 15.375 0 C16.51324219 0.00338379 17.65148437 0.00676758 18.82421875 0.01025391 C21.6875 0.3984375 21.6875 0.3984375 23.55859375 1.73583984 C25.32459361 4.33671767 25.06898322 6.34657174 24.6875 9.3984375 C23.54272461 11.05883789 23.54272461 11.05883789 21.6875 12.3984375 C17.23857727 13.05077799 12.74128865 12.86152226 8.25 12.8359375 C7.00927734 12.85591797 5.76855469 12.87589844 4.49023438 12.89648438 C2.70262695 12.89551758 2.70262695 12.89551758 0.87890625 12.89453125 C-0.21220459 12.89638428 -1.30331543 12.8982373 -2.42749023 12.90014648 C-5.9674839 12.28453449 -7.14484795 11.21196533 -9.3125 8.3984375 C-9.79650284 5.56356375 -9.83610862 4.1506735 -8.1796875 1.77099609 C-5.46245204 -0.22642778 -3.34470444 0.0099432 0 0 Z " fill="#232324" transform="translate(214.3125,166.6015625)"/>
<path d="M0 0 C1.29679687 -0.01998047 2.59359375 -0.03996094 3.9296875 -0.06054688 C5.16976562 -0.05990234 6.40984375 -0.05925781 7.6875 -0.05859375 C9.39486328 -0.06137329 9.39486328 -0.06137329 11.13671875 -0.06420898 C14 0.4375 14 0.4375 15.90234375 2.27319336 C17.46362967 5.35166305 16.98776469 7.19198743 16 10.4375 C11.02977531 13.75098312 5.33796407 12.76506183 -0.5 12.75 C-2.37365234 12.77416992 -2.37365234 12.77416992 -4.28515625 12.79882812 C-5.48011719 12.79947266 -6.67507812 12.80011719 -7.90625 12.80078125 C-9.55077148 12.80525269 -9.55077148 12.80525269 -11.22851562 12.80981445 C-14 12.4375 -14 12.4375 -15.85742188 11.10229492 C-17.64137325 8.50298628 -17.38246701 6.49723607 -17 3.4375 C-13.41640986 -1.8332605 -5.6382092 -0.0308252 0 0 Z " fill="#242425" transform="translate(104,166.5625)"/>
<path d="M0 0 C1.24007812 -0.00386719 2.48015625 -0.00773438 3.7578125 -0.01171875 C5.70300781 0.00568359 5.70300781 0.00568359 7.6875 0.0234375 C8.98429687 0.01183594 10.28109375 0.00023437 11.6171875 -0.01171875 C12.85726562 -0.00785156 14.09734375 -0.00398437 15.375 0 C16.51324219 0.00338379 17.65148437 0.00676758 18.82421875 0.01025391 C21.6875 0.3984375 21.6875 0.3984375 23.59375 1.70068359 C24.6875 3.3984375 24.6875 3.3984375 24.5 6.9609375 C23.6875 10.3984375 23.6875 10.3984375 21.6875 12.3984375 C17.2479565 12.88661499 12.77580017 12.76884563 8.3125 12.7734375 C7.06726563 12.79792969 5.82203125 12.82242188 4.5390625 12.84765625 C3.3428125 12.85152344 2.1465625 12.85539063 0.9140625 12.859375 C-0.73215088 12.87170166 -0.73215088 12.87170166 -2.41162109 12.88427734 C-5.97129166 12.28810293 -7.13884353 11.22645851 -9.3125 8.3984375 C-9.79650284 5.56356375 -9.83610862 4.1506735 -8.1796875 1.77099609 C-5.46245204 -0.22642778 -3.34470444 0.0099432 0 0 Z " fill="#232323" transform="translate(155.3125,166.6015625)"/>
<path d="M0 0 C0.66 0.33 1.32 0.66 2 1 C0.38405168 3.04119788 -1.2856382 5.04072937 -3 7 C-3.66 7 -4.32 7 -5 7 C-3.70700306 4.11562221 -2.34058637 2.12780579 0 0 Z " fill="#5B5B5C" transform="translate(56,33)"/>
</svg>
